# xmcd
#
# Track frame offsets:
#	150
#	13464
#	27879
#	44275
#	56231
#	70111
#	82714
#	99357
#	113333
#	125504
#	134358
#	146808
#
# Disc length: 2087 seconds
#
# Revision: 1
# Processed by: cddbd v1.5.2PL0 Copyright (c) Steve Scherf et al.
# Submitted via: audiograbber 1.83.01
#
DISCID=9f08250c
DTITLE=Various Artist - Christmas Along the Crooked Road
DYEAR=2011
DGENRE=Bluegrass
TTITLE0=Steve Lewis - Deck the Halls
TTITLE1=Helen White - Christmas Promise
TTITLE2=Spencer Strickland - Winter Wonderland
TTITLE3=Gerald Anderson - Silent Night
TTITLE4=Jeff Little - What Child Is This
TTITLE5=Junior Appalachian Musicians (JAM Kids) - Santa Claus is Coming to Town
TTITLE6=Wayne Henderson - Blue Christmas
TTITLE7=Josh Scott - God Rest Ye Merry Gentlemen
TTITLE8=Helen White - Christmas Lullaby
TTITLE9=Gerald Anderson - Joy to the World
TTITLE10=Gerald Anderson - I'll Be Home for Christmas
TTITLE11=Jimmy Edmonds - Away in a Manger
EXTD=Recorded at Eastwood Studios, Cana, VA.\nExecutive Producer: Kylene Barker
EXTD=McNeill\nMusical Producer: Gerald Anderson, Wesley Easter\nRecording Engi
EXTD=neer: Wesley Easter\nMixed by: Gerald Anderson and Wesley Easter\nArtistic
EXTD=Producer: Debbie Robinson, Kylene McNeill, Rebecca Pittard
EXTT0=
EXTT1=
EXTT2=
EXTT3=
EXTT4=
EXTT5=
EXTT6=
EXTT7=
EXTT8=
EXTT9=
EXTT10=
EXTT11=
PLAYORDER=
